<svg width="33" height="19" viewBox="0 0 33 19" fill="none" xmlns="http://www.w3.org/2000/svg">
<path d="M33 2.70962C33 2.99257 32.8898 3.24283 32.6693 3.46048L17.2605 18.6735C17.0401 18.8912 16.7866 19 16.5 19C16.2134 19 15.9599 18.8912 15.7395 18.6735L0.330661 3.46048C0.110209 3.24283 0 2.99257 0 2.70962C0 2.42668 0.110209 2.17641 0.330661 1.95876L1.98397 0.32646C2.20442 0.108809 2.4579 0 2.74449 0C3.03107 0 3.28456 0.108809 3.50501 0.32646L16.5 13.1564L29.495 0.32646C29.7154 0.108809 29.9689 0 30.2555 0C30.5421 0 30.7956 0.108809 31.016 0.32646L32.6693 1.95876C32.8898 2.17641 33 2.42668 33 2.70962Z" fill="black"/>
</svg>
