<svg width="15" height="9" viewBox="0 0 15 9" fill="none" xmlns="http://www.w3.org/2000/svg">
<path d="M15 1.28351C15 1.41753 14.9499 1.53608 14.8497 1.63918L7.84569 8.84536C7.74549 8.94846 7.63027 9 7.5 9C7.36973 9 7.25451 8.94846 7.15431 8.84536L0.150301 1.63918C0.0500952 1.53608 0 1.41753 0 1.28351C0 1.14948 0.0500952 1.03093 0.150301 0.927835L0.901804 0.154639C1.00201 0.0515412 1.11723 0 1.24749 0C1.37776 0 1.49298 0.0515412 1.59319 0.154639L7.5 6.23196L13.4068 0.154639C13.507 0.0515412 13.6222 0 13.7525 0C13.8828 0 13.998 0.0515412 14.0982 0.154639L14.8497 0.927835C14.9499 1.03093 15 1.14948 15 1.28351Z" fill="#051829"/>
</svg>
