<svg width="36" height="33" viewBox="0 0 36 33" fill="none" xmlns="http://www.w3.org/2000/svg">
<path fill-rule="evenodd" clip-rule="evenodd" d="M4.51732 0.552734C3.58299 0.552734 2.77549 0.857063 2.12817 1.40545C1.49674 1.94038 1.06584 2.66535 0.78073 3.44686C0.215823 4.99531 0.15107 6.95937 0.405227 8.82664C0.66065 10.7032 1.25537 12.6095 2.12703 14.0615C2.34327 14.4217 2.58964 14.7738 2.86569 15.0964C1.96273 15.5555 1.11426 16.33 0.822102 17.3372C0.666538 17.8735 0.678206 18.4574 0.91986 19.0249C1.15684 19.5814 1.58489 20.0533 2.14884 20.4411C3.03103 21.0477 4.33781 21.513 6.13125 21.8063C5.69203 22.7656 5.42639 23.6681 5.3414 24.488C5.21877 25.6711 5.46841 26.7978 6.26811 27.5723C7.07032 28.3493 8.21068 28.5635 9.41476 28.3873C10.5524 28.2208 11.849 27.6984 13.2534 26.8283C14.1924 27.7479 15.1217 28.5883 15.9911 29.3144C17.4451 30.5286 18.7982 31.4795 19.7749 31.9137L20.5875 30.0863C19.8774 29.7705 18.7005 28.9714 17.2731 27.7793C15.8676 26.6056 14.2833 25.1053 12.7663 23.4495C12.7469 23.4282 12.7274 23.407 12.708 23.3857C13.7971 21.9108 14.6908 20.3743 15.292 19.0151C15.6072 18.3027 15.8503 17.6203 15.9959 17.0077C16.136 16.418 16.2096 15.7966 16.0944 15.2523C16.0344 14.9687 15.9132 14.6592 15.678 14.3947C15.4319 14.118 15.1108 13.9474 14.7587 13.8825C14.1198 13.7647 13.4517 14.0033 12.8561 14.3215C12.735 14.3862 12.6094 14.4584 12.4792 14.5381C12.5365 14.3463 12.5878 14.1562 12.6334 13.9681C13.1036 12.0271 12.9812 10.1934 12.2888 8.94558C11.9355 8.30889 11.3972 7.76887 10.6637 7.54095C9.91823 7.30935 9.14038 7.45245 8.42565 7.85667C8.46146 7.58775 8.4891 7.31938 8.50747 7.05282C8.5977 5.74321 8.47007 4.39464 7.90966 3.22803C7.33211 2.02576 6.32695 1.08777 4.82548 0.601401L4.67524 0.552734H4.51732ZM11.3578 21.8406C12.2494 20.5857 12.9732 19.3133 13.463 18.2059C13.7446 17.5695 13.9406 17.0062 14.05 16.5454C14.1137 16.2774 14.1413 16.0719 14.149 15.9224C14.0591 15.9567 13.9433 16.0082 13.7986 16.0855C12.9386 16.545 11.5849 17.6258 9.63796 19.6278C10.172 20.372 10.7511 21.1139 11.3578 21.8406ZM8.46783 17.87C9.66898 16.3592 10.3652 14.8363 10.6896 13.4972C11.0899 11.8448 10.9049 10.5736 10.54 9.91596C10.3646 9.59993 10.1868 9.48709 10.0702 9.45089C9.96572 9.41841 9.75968 9.39984 9.41 9.59766C8.82105 9.93085 8.01877 10.7788 7.1528 12.4498C6.97676 12.8832 6.79528 13.2918 6.61578 13.6671C6.89612 14.9289 7.5459 16.361 8.46783 17.87ZM5.00515 13.5966L4.52957 13.3768C4.79112 12.7369 5.05936 12.1497 5.33319 11.6146C5.90972 10.1772 6.40442 8.47966 6.5122 6.91535C6.58903 5.80019 6.46312 4.83564 6.10688 4.09404C5.78611 3.42629 5.25461 2.88437 4.36524 2.55793C3.96905 2.58563 3.6676 2.72251 3.42096 2.93146C3.12779 3.17982 2.86355 3.57327 2.6596 4.13231C2.2464 5.26493 2.1574 6.87039 2.38695 8.55691C2.61524 10.2341 3.14169 11.8659 3.84177 13.0321C4.11831 13.4927 4.39436 13.8397 4.66134 14.0915C4.63013 13.9504 4.60237 13.8101 4.57823 13.6705L5.00515 13.5966ZM5.5396 16.635C5.94461 17.5244 6.44403 18.4198 7.00311 19.3013C7.14418 19.5237 7.28962 19.7461 7.43902 19.9682C5.21602 19.7139 3.9414 19.2465 3.28203 18.7931C2.94727 18.5629 2.81281 18.3654 2.75997 18.2413C2.71182 18.1282 2.70638 18.0204 2.74292 17.8944C2.82943 17.5962 3.17516 17.174 3.80308 16.8637C4.18823 16.6734 4.60762 16.563 5.00857 16.5455C5.18029 16.5896 5.35731 16.6201 5.5396 16.635ZM8.54182 21.5119C9.29122 22.5046 10.1016 23.478 10.9342 24.4063C11.0695 24.7271 11.2633 25.094 11.5307 25.518C10.5719 26.0396 9.76416 26.3149 9.12514 26.4084C8.2981 26.5294 7.86813 26.3377 7.6595 26.1357C7.44835 25.9312 7.24661 25.5059 7.33074 24.6942C7.41455 23.8857 7.77836 22.8075 8.54182 21.5119ZM27 8.5C27 10.9853 24.9853 13 22.5 13C20.0147 13 18 10.9853 18 8.5C18 6.01472 20.0147 4 22.5 4C24.9853 4 27 6.01472 27 8.5ZM29 8.5C29 12.0899 26.0899 15 22.5 15C18.9101 15 16 12.0899 16 8.5C16 4.91015 18.9101 2 22.5 2C26.0899 2 29 4.91015 29 8.5ZM26.3427 17.2853L25.8668 17.2767L25.56 17.6405C24.622 18.753 23.4796 19.2314 22.4053 19.2194C21.3265 19.2072 20.2198 18.6994 19.36 17.651L19.0599 17.2852H18.5868C17.389 17.2852 16.6222 18.0734 16.1607 18.725C15.9224 19.0615 15.7242 19.4188 15.5621 19.7217C15.5208 19.7989 15.4826 19.8708 15.4469 19.9382L15.4465 19.939L15.4462 19.9395L15.4462 19.9395L15.4462 19.9396L15.4462 19.9396C15.3308 20.1572 15.2406 20.3273 15.1505 20.4723L16.8493 21.5277C16.9794 21.3185 17.1136 21.0649 17.2351 20.8355L17.2352 20.8353L17.2372 20.8314L17.2375 20.8309C17.2676 20.774 17.297 20.7185 17.3253 20.6657C17.4811 20.3747 17.6307 20.1098 17.7929 19.8809C17.9655 19.6372 18.1137 19.4873 18.2452 19.3988C19.3966 20.5631 20.8627 21.2021 22.3828 21.2192C23.9538 21.2369 25.5022 20.5896 26.7409 19.3145C28.8575 19.5622 30.9555 21.3107 32.3894 23.7377C33.7679 26.0709 34.3114 28.6594 33.8235 30.494H24.097V32.494H34.5312H35.1837L35.4465 31.8968C36.6309 29.2055 35.7937 25.5679 34.1113 22.7204C32.4252 19.8664 29.6154 17.3448 26.3427 17.2853Z" fill="#FF9900"/>
</svg>
