<svg width="300" height="150" viewBox="0 0 300 150" fill="none" xmlns="http://www.w3.org/2000/svg">
<path fill-rule="evenodd" clip-rule="evenodd" d="M111.818 26C111.818 25.4477 112.266 25 112.818 25H187.182C187.734 25 188.182 25.4477 188.182 26V102.049C188.182 102.601 187.734 103.049 187.182 103.049H112.818C112.266 103.049 111.818 102.601 111.818 102.049V26ZM118.579 32.3169V44.1055C147.216 44.1055 169.488 67.2762 169.488 96.138H181.42C181.42 79.4714 176.648 57.1136 155.568 44.1055H181.42V32.3169H118.579ZM118.579 51.4226V63.6177C138.863 63.6177 150 80.6909 150 96.138H163.125C163.125 73.3738 144.034 51.4226 118.579 51.4226ZM144.034 96.138H132.898C132.898 87.6014 125.341 81.5039 118.579 81.5039V70.1218C130.67 70.1218 144.034 80.6909 144.034 96.138ZM209.75 110.794C209.41 110.753 209.147 110.733 208.97 110.733V124.715C209.23 124.712 209.491 124.698 209.75 124.674C210.093 124.648 210.346 124.633 210.511 124.633C210.772 124.637 211.032 124.651 211.292 124.674C211.633 124.702 211.887 124.715 212.051 124.715V118.244L216.509 124.715L218.254 124.633L220 124.715V124.449L214.271 116.55C214.664 116.079 215.068 115.616 215.482 115.162C216.103 114.454 216.74 113.76 217.393 113.08C218.104 112.332 218.837 111.604 219.589 110.896V110.733L219.015 110.814C218.821 110.842 218.652 110.855 218.502 110.855C218.39 110.855 218.21 110.838 217.956 110.804C217.902 110.797 217.85 110.79 217.802 110.784C217.625 110.761 217.489 110.743 217.393 110.733C215.663 112.904 213.882 115.034 212.051 117.122V110.733C211.875 110.733 211.613 110.753 211.27 110.794C210.929 110.835 210.677 110.855 210.511 110.855C210.346 110.855 210.093 110.834 209.75 110.794ZM193.75 110.794C193.409 110.753 193.156 110.733 192.991 110.733H192.99V124.715C193.251 124.712 193.511 124.698 193.771 124.674C194.112 124.648 194.366 124.633 194.532 124.633C194.792 124.638 195.051 124.651 195.311 124.674C195.653 124.702 195.906 124.715 196.071 124.715V117.898L197.572 117.846C198.187 117.827 198.735 117.816 199.213 117.816C199.255 117.816 199.696 117.829 200.539 117.857C201.382 117.885 201.986 117.898 202.357 117.898V124.715C202.534 124.715 202.796 124.702 203.136 124.674C203.479 124.648 203.725 124.633 203.878 124.633C204.145 124.637 204.412 124.651 204.678 124.674C205.019 124.702 205.273 124.715 205.437 124.715V110.734C205.261 110.734 204.999 110.754 204.658 110.795C204.315 110.836 204.052 110.856 203.877 110.856C203.712 110.856 203.457 110.835 203.116 110.795C202.775 110.754 202.521 110.734 202.357 110.734V116.266C202.234 116.266 201.577 116.294 200.386 116.347C200.084 116.36 199.695 116.367 199.214 116.367C199.064 116.367 198.611 116.349 197.859 116.316C197.108 116.282 196.51 116.265 196.072 116.265V110.733C195.894 110.733 195.632 110.753 195.291 110.794C194.949 110.835 194.696 110.855 194.532 110.855C194.354 110.855 194.092 110.834 193.75 110.794ZM170.385 123.481C170.327 123.484 170.27 123.486 170.212 123.489V117.876H171.691C172.238 117.876 172.709 118.129 173.108 118.632C173.504 119.135 173.704 119.782 173.704 120.57C173.704 121.238 173.541 121.824 173.221 122.327C172.901 122.83 172.417 123.17 171.773 123.347C171.579 123.4 171.341 123.435 171.054 123.448C170.827 123.458 170.604 123.47 170.385 123.481ZM170.212 116.754V112.202C171.8 112.202 173.015 112.226 173.857 112.274C174.644 112.317 175.428 112.389 176.21 112.489C176.14 112.175 176.108 111.884 176.108 111.611C176.105 111.461 176.112 111.311 176.127 111.162C176.15 111.018 176.177 110.875 176.21 110.733H167.132V124.633H171.466C173.056 124.633 174.292 124.347 175.184 123.777C176.321 123.054 176.888 121.865 176.888 120.203C176.888 119.06 176.5 118.201 175.727 117.621C174.953 117.042 173.839 116.754 172.389 116.754H170.212ZM163.987 124.123L164.439 122.368L164.173 122.244C163.676 122.718 163.095 123.095 162.459 123.357C161.793 123.635 161.142 123.776 160.496 123.776C158.936 123.776 157.73 123.234 156.881 122.153C156.031 121.071 155.607 119.633 155.607 117.835C155.607 116.15 155.976 114.734 156.716 113.59C157.58 112.256 158.804 111.59 160.393 111.59C161.037 111.59 161.668 111.766 162.293 112.121C162.891 112.452 163.407 112.912 163.802 113.468H164.091L164.563 111.366C163.958 111.039 163.29 110.791 162.55 110.621C161.81 110.45 161.084 110.366 160.374 110.366C157.99 110.366 156.067 110.991 154.601 112.244C152.999 113.619 152.199 115.578 152.199 118.123C152.199 120.191 152.938 121.866 154.416 123.144C155.841 124.381 157.675 125 159.922 125C160.636 125.001 161.348 124.93 162.047 124.786C162.72 124.649 163.372 124.426 163.987 124.123ZM143.796 117.744C144.605 119.077 145.206 120.167 145.605 121.014C145.29 121.655 145.051 122.145 144.886 122.486C144.352 123.578 143.969 124.32 143.736 124.716L144.619 124.634C144.77 124.638 144.921 124.652 145.071 124.675C145.207 124.696 145.344 124.709 145.482 124.716C145.781 123.941 146.447 122.497 147.473 120.389C148.376 118.541 149.3 116.704 150.246 114.878C151.316 112.821 152.048 111.44 152.445 110.734L151.46 110.795L150.453 110.734C149.755 112.298 149.2 113.517 148.789 114.388C148.008 116.048 147.453 117.13 147.125 117.632C146.973 117.334 146.571 116.624 145.913 115.51L145.8 115.316C144.898 113.764 144.397 112.902 144.29 112.733C143.729 111.766 143.358 111.101 143.181 110.733C142.976 110.733 142.668 110.753 142.257 110.794C141.846 110.835 141.537 110.855 141.333 110.855C141.126 110.855 140.819 110.834 140.408 110.794C139.998 110.753 139.689 110.733 139.483 110.733C139.881 111.439 140.544 112.537 141.476 114.024C142.871 116.259 143.645 117.499 143.796 117.744ZM134.656 117.325C134.233 117.42 133.78 117.468 133.301 117.468V111.856H134.574C135.121 111.856 135.578 112.103 135.94 112.601C136.302 113.098 136.484 113.746 136.484 114.55C136.484 115.244 136.348 115.823 136.074 116.285C135.758 116.803 135.285 117.15 134.656 117.325ZM132.541 124.673C132.882 124.701 133.136 124.714 133.301 124.714V118.612C135.367 118.612 136.895 118.325 137.881 117.755C139.073 117.06 139.669 115.868 139.669 114.182C139.669 111.883 138.201 110.733 135.273 110.733H130.219V124.714C130.473 124.71 130.727 124.696 130.979 124.673C131.321 124.647 131.583 124.632 131.76 124.632C132.021 124.637 132.281 124.65 132.541 124.673ZM120.895 114.468L122.723 119.224H118.964L120.895 114.468ZM100.119 111.202C100.139 111.039 100.162 110.884 100.19 110.733H92.3433V124.632H100.189C100.177 124.523 100.156 124.376 100.128 124.183C100.1 123.992 100.087 123.85 100.087 123.755C100.087 123.644 100.098 123.511 100.119 123.347C100.139 123.182 100.162 123.027 100.19 122.877C99.4671 122.972 98.7409 123.044 98.0129 123.091C97.2742 123.139 96.4115 123.162 95.4257 123.162V117.998H97.5802C98.4566 117.998 99.2982 118.052 100.107 118.163C100.095 118.052 100.075 117.904 100.046 117.714C100.018 117.522 100.005 117.378 100.005 117.284C100.005 117.189 100.019 117.04 100.046 116.835C100.074 116.631 100.094 116.496 100.107 116.427C99.4911 116.496 99.0079 116.542 98.6597 116.57C98.3096 116.598 97.9504 116.611 97.5811 116.611H95.4248V112.201C96.2877 112.197 97.1506 112.221 98.012 112.273C98.74 112.32 99.4662 112.392 100.189 112.488C100.177 112.378 100.156 112.23 100.128 112.038C100.1 111.848 100.087 111.705 100.087 111.61C100.087 111.501 100.098 111.366 100.119 111.202ZM83.4473 123.471C83.3239 123.477 83.2017 123.483 83.0805 123.489V117.876H84.5597C85.1064 117.876 85.5786 118.129 85.9764 118.632C86.3752 119.135 86.5718 119.782 86.5718 120.57C86.5718 121.238 86.411 121.824 86.0894 122.327C85.7688 122.83 85.2855 123.17 84.6415 123.347C84.4495 123.4 84.2097 123.435 83.923 123.448C83.7623 123.455 83.6038 123.463 83.4473 123.471ZM106.772 111.496C106.772 111.078 106.468 110.721 106.107 110.721C106.784 110.721 108.15 110.721 108.857 110.71C109.434 112.28 110.022 113.845 110.623 115.405C111.228 116.961 111.844 118.512 112.471 120.059C113.095 121.605 113.725 123.15 114.361 124.691C114.156 124.691 113.856 124.672 113.458 124.631C113.06 124.59 112.76 124.571 112.554 124.571C112.349 124.571 112.049 124.59 111.651 124.631C111.252 124.672 110.952 124.691 110.747 124.691C110.324 123.276 109.748 121.595 109.022 119.651C108.378 117.966 107.741 116.279 107.111 114.589C106.755 115.447 106.308 116.551 105.766 117.907C105.225 119.261 104.79 120.395 104.462 121.304C104.01 122.554 103.62 123.684 103.292 124.692L102.326 124.632L101.381 124.692C102.038 123.156 102.702 121.612 103.373 120.06C104.044 118.508 104.688 116.963 105.304 115.426C105.816 114.169 106.288 112.957 106.721 111.788C106.754 111.699 106.772 111.599 106.772 111.496ZM122.535 110.669L122.858 111.544L128.187 124.714C127.994 124.714 127.661 124.701 127.18 124.673L127.045 124.666C126.651 124.644 126.437 124.632 126.399 124.632C126.194 124.632 125.855 124.647 125.383 124.673C124.91 124.701 124.667 124.714 124.654 124.714C124.338 123.721 124.107 123.001 123.955 122.551C123.68 121.747 123.429 121.054 123.195 120.469H118.409C117.971 121.7 117.652 122.605 117.454 123.187C117.256 123.768 117.094 124.28 116.971 124.715L116.006 124.633L115.02 124.715L120.39 111.765C120.393 111.758 120.395 111.752 120.397 111.745C120.43 111.656 120.449 111.557 120.449 111.453C120.449 111.036 120.145 110.678 119.783 110.678H120.841L120.844 110.669L122.504 110.67L122.535 110.669ZM183.773 114.52L185.599 119.276H181.842L183.773 114.52ZM185.412 110.721L185.735 111.596L191.062 124.764C190.87 124.764 190.536 124.752 190.055 124.723C189.576 124.697 189.316 124.684 189.274 124.684C188.936 124.689 188.597 124.702 188.259 124.723C187.785 124.752 187.544 124.764 187.529 124.764L187.48 124.613C187.189 123.699 186.975 123.028 186.831 122.602C186.556 121.797 186.305 121.104 186.072 120.519H181.284C180.846 121.75 180.526 122.655 180.33 123.237C180.133 123.819 179.971 124.33 179.847 124.765L178.882 124.685L177.897 124.765L183.268 111.816L183.275 111.796C183.307 111.707 183.326 111.608 183.326 111.504C183.326 111.087 183.022 110.729 182.661 110.729H183.718L183.722 110.721H185.412ZM83.0805 116.754V112.202C84.67 112.202 85.8846 112.226 86.728 112.274C87.514 112.317 88.2982 112.389 89.079 112.489C88.9792 112.054 88.9513 111.606 88.9963 111.162C89.019 111.018 89.0462 110.875 89.0781 110.733H80V124.633H84.3346C85.9231 124.633 87.1607 124.347 88.0519 123.777C89.1893 123.054 89.7571 121.865 89.7571 120.203C89.7571 119.06 89.3684 118.201 88.5958 117.621C87.824 117.042 86.7096 116.754 85.2589 116.754H83.0805Z" fill="#006947"/>
</svg>
