<svg width="28" height="28" viewBox="0 0 28 28" fill="none" xmlns="http://www.w3.org/2000/svg">
<path d="M14 28C11.2311 28 8.52431 27.1789 6.22202 25.6406C3.91973 24.1022 2.12532 21.9157 1.06569 19.3576C0.00606611 16.7994 -0.271181 13.9845 0.269012 11.2687C0.809205 8.55301 2.14258 6.05844 4.10051 4.10051C6.05844 2.14258 8.55301 0.809205 11.2687 0.269012C13.9845 -0.271181 16.7994 0.00606611 19.3576 1.06569C21.9157 2.12532 24.1022 3.91973 25.6406 6.22202C27.1789 8.52431 28 11.2311 28 14C28 17.713 26.525 21.274 23.8995 23.8995C21.274 26.525 17.713 28 14 28ZM14 1.86667C11.6003 1.86667 9.2544 2.57828 7.25909 3.91151C5.26377 5.24473 3.70861 7.1397 2.79027 9.35678C1.87192 11.5739 1.63164 14.0135 2.09981 16.3671C2.56798 18.7207 3.72357 20.8827 5.42044 22.5796C7.11732 24.2764 9.27927 25.432 11.6329 25.9002C13.9865 26.3684 16.4262 26.1281 18.6432 25.2097C20.8603 24.2914 22.7553 22.7362 24.0885 20.7409C25.4217 18.7456 26.1333 16.3997 26.1333 14C26.1333 10.782 24.855 7.69588 22.5796 5.42044C20.3041 3.145 17.218 1.86667 14 1.86667Z" fill="#FF9900"/>
<path d="M17.9576 19.2825L13.3376 14.6625C13.2511 14.5753 13.1826 14.4719 13.1362 14.3582C13.0897 14.2445 13.0662 14.1227 13.0669 13.9999V6.5332H14.9336V13.6172L19.2829 17.9572L17.9576 19.2825Z" fill="#FF9900"/>
</svg>
