<svg width="32" height="32" viewBox="0 0 32 32" fill="none" xmlns="http://www.w3.org/2000/svg">
<path d="M18.6667 8.66667V18C18.6667 18.1944 18.6042 18.3542 18.4792 18.4792C18.3542 18.6042 18.1944 18.6667 18 18.6667H11.3333C11.1389 18.6667 10.9792 18.6042 10.8542 18.4792C10.7292 18.3542 10.6667 18.1944 10.6667 18V16.6667C10.6667 16.4722 10.7292 16.3125 10.8542 16.1875C10.9792 16.0625 11.1389 16 11.3333 16H16V8.66667C16 8.47223 16.0625 8.3125 16.1875 8.1875C16.3125 8.0625 16.4722 8 16.6667 8H18C18.1944 8 18.3542 8.0625 18.4792 8.1875C18.6042 8.3125 18.6667 8.47223 18.6667 8.66667ZM27.3333 16C27.3333 13.9444 26.8264 12.0486 25.8125 10.3125C24.7986 8.5764 23.4236 7.2014 21.6875 6.1875C19.9514 5.1736 18.0556 4.66667 16 4.66667C13.9444 4.66667 12.0486 5.1736 10.3125 6.1875C8.5764 7.2014 7.2014 8.5764 6.1875 10.3125C5.1736 12.0486 4.66667 13.9444 4.66667 16C4.66667 18.0556 5.1736 19.9514 6.1875 21.6875C7.2014 23.4236 8.5764 24.7986 10.3125 25.8125C12.0486 26.8264 13.9444 27.3333 16 27.3333C18.0556 27.3333 19.9514 26.8264 21.6875 25.8125C23.4236 24.7986 24.7986 23.4236 25.8125 21.6875C26.8264 19.9514 27.3333 18.0556 27.3333 16ZM32 16C32 18.9028 31.2847 21.5799 29.8542 24.0313C28.4236 26.4826 26.4826 28.4236 24.0313 29.8542C21.5799 31.2847 18.9028 32 16 32C13.0972 32 10.4201 31.2847 7.96875 29.8542C5.51735 28.4236 3.5764 26.4826 2.14583 24.0313C0.715271 21.5799 0 18.9028 0 16C0 13.0972 0.715271 10.4201 2.14583 7.96875C3.5764 5.51735 5.51735 3.5764 7.96875 2.14583C10.4201 0.715271 13.0972 0 16 0C18.9028 0 21.5799 0.715271 24.0313 2.14583C26.4826 3.5764 28.4236 5.51735 29.8542 7.96875C31.2847 10.4201 32 13.0972 32 16Z" fill="#FF9900"/>
</svg>
