<svg width="32" height="22" viewBox="0 0 32 22" fill="none" xmlns="http://www.w3.org/2000/svg">
<path d="M17.104 11.0832C16.81 11.3113 16.428 11.4375 16.032 11.4375C15.6359 11.4375 15.254 11.3113 14.96 11.0832L1.39197 0.481282C1.92438 0.167841 2.55462 7.36222e-05 3.19997 0H28.8C29.4453 7.36222e-05 30.0756 0.167841 30.608 0.481282L17.104 11.0832Z" fill="#FF9900"/>
<path d="M32 3.10547V17.874C32 18.968 31.4943 20.0173 30.5941 20.791C29.6939 21.5646 28.473 21.9992 27.2 21.9992H4.8C3.52696 21.9992 2.30606 21.5646 1.40589 20.791C0.505713 20.0173 0 18.968 0 17.874V3.10547L13.888 13.9962C14.4737 14.4334 15.2242 14.6728 16 14.67C16.7854 14.6686 17.5428 14.419 18.128 13.9687L32 3.10547Z" fill="#FF9900"/>
</svg>
