<svg width="32" height="22" viewBox="0 0 32 22" fill="none" xmlns="http://www.w3.org/2000/svg">
<path d="M17.1041 11.0832C16.8101 11.3113 16.4281 11.4375 16.0321 11.4375C15.6361 11.4375 15.2541 11.3113 14.9601 11.0832L1.39209 0.481282C1.9245 0.167841 2.55474 7.36222e-05 3.20009 0H28.8001C29.4454 7.36222e-05 30.0757 0.167841 30.6081 0.481282L17.1041 11.0832Z" fill="#051829"/>
<path d="M32 3.10547V17.874C32 18.968 31.4943 20.0173 30.5941 20.791C29.6939 21.5646 28.473 21.9992 27.2 21.9992H4.8C3.52696 21.9992 2.30606 21.5646 1.40589 20.791C0.505713 20.0173 0 18.968 0 17.874V3.10547L13.888 13.9962C14.4737 14.4334 15.2242 14.6728 16 14.67C16.7854 14.6686 17.5428 14.419 18.128 13.9687L32 3.10547Z" fill="#051829"/>
</svg>
