<svg width="300" height="150" viewBox="0 0 300 150" fill="none" xmlns="http://www.w3.org/2000/svg">
<path fill-rule="evenodd" clip-rule="evenodd" d="M60 42C54.4772 42 50 46.4772 50 52V78.2861C50 83.809 54.4772 88.2861 60 88.2861H240C245.523 88.2861 250 83.809 250 78.2861V52C250 46.4772 245.523 42 240 42H60ZM172.857 88.2865V104.949C172.857 107.727 176 110.134 180.952 104.949L198.095 88.2865H172.857Z" fill="#C6241C"/>
<path fill-rule="evenodd" clip-rule="evenodd" d="M59.5239 54.1831V76.1033C59.5239 77.2079 60.4194 78.1033 61.5239 78.1033H66.007C67.1116 78.1033 68.007 77.2079 68.007 76.1033V63.1635C68.007 62.152 69.337 61.78 69.8618 62.6447L77.3152 74.9237C79.6914 78.8384 85.4005 78.7553 87.6617 74.773L94.4143 62.8814C94.9213 61.9884 96.2839 62.3482 96.2839 63.3751V76.1033C96.2839 77.2079 97.1793 78.1033 98.2839 78.1033H103.238C104.343 78.1033 105.238 77.2079 105.238 76.1033V54.1831C105.238 53.0785 104.343 52.1831 103.238 52.1831H93.5519C92.0473 52.1831 90.6699 53.0275 89.9873 54.3684L84.3063 65.5274C83.5828 66.9486 81.5683 66.9928 80.7832 65.6047L74.3397 54.2137C73.6299 52.9589 72.2998 52.1831 70.8581 52.1831H61.5239C60.4194 52.1831 59.5239 53.0785 59.5239 54.1831ZM151.905 54.1831V76.1033C151.905 77.2079 152.8 78.1033 153.905 78.1033H158.388C159.492 78.1033 160.388 77.2079 160.388 76.1033V63.1635C160.388 62.152 161.718 61.78 162.243 62.6447L169.696 74.9237C172.072 78.8384 177.781 78.7553 180.043 74.773L186.795 62.8814C187.302 61.9884 188.665 62.3482 188.665 63.3751V76.1033C188.665 77.2079 189.56 78.1033 190.665 78.1033H195.619C196.724 78.1033 197.619 77.2079 197.619 76.1033V54.1831C197.619 53.0785 196.724 52.1831 195.619 52.1831H185.933C184.428 52.1831 183.051 53.0275 182.368 54.3684L176.687 65.5274C175.964 66.9486 173.949 66.9928 173.164 65.6047L166.721 54.2137C166.011 52.9589 164.681 52.1831 163.239 52.1831H153.905C152.8 52.1831 151.905 53.0785 151.905 54.1831ZM118 52.1831C113.582 52.1831 110 55.7648 110 60.1831V70.1033C110 74.5216 113.582 78.1033 118 78.1033H139.143C143.561 78.1033 147.143 74.5216 147.143 70.1033V60.1831C147.143 55.7648 143.561 52.1831 139.143 52.1831H118ZM121.619 58.6631C119.41 58.6631 117.619 60.4539 117.619 62.6631V67.6232C117.619 69.8323 119.41 71.6232 121.619 71.6232H134.572C136.781 71.6232 138.572 69.8323 138.572 67.6232V62.6631C138.572 60.4539 136.781 58.6631 134.572 58.6631H121.619ZM202.381 60.1831C202.381 55.7648 205.963 52.1831 210.381 52.1831H231.524C235.942 52.1831 239.524 55.7648 239.524 60.1831V70.1033C239.524 74.5216 235.942 78.1033 231.524 78.1033H210.381C205.963 78.1033 202.381 74.5216 202.381 70.1033V60.1831ZM210 62.6631C210 60.4539 211.791 58.6631 214 58.6631H226.952C229.162 58.6631 230.952 60.4539 230.952 62.6631V67.6232C230.952 69.8323 229.162 71.6232 226.952 71.6232H214C211.791 71.6232 210 69.8323 210 67.6232V62.6631Z" fill="white"/>
</svg>
