<svg width="100" height="100" viewBox="0 0 100 100" fill="none" xmlns="http://www.w3.org/2000/svg">
<path d="M100 86.1111C100 93.8889 93.8889 100 86.1111 100H13.8889C6.11111 100 0 93.8889 0 86.1111V13.8889C0 6.11111 6.11111 0 13.8889 0H86.1111C93.8889 0 100 6.11111 100 13.8889V86.1111Z" fill="#2166A9"/>
<path fill-rule="evenodd" clip-rule="evenodd" d="M63.0756 39.7777C59.6368 39.7777 56.8491 36.9173 56.8491 33.3889C56.8491 29.8604 59.6368 27 63.0756 27C66.5143 27 69.302 29.8604 69.302 33.3889C69.302 36.9173 66.5143 39.7777 63.0756 39.7777ZM36.9246 39.7777C33.4858 39.7777 30.6982 36.9173 30.6982 33.3889C30.6982 29.8604 33.4858 27 36.9246 27C40.3633 27 43.151 29.8604 43.151 33.3889C43.151 36.9173 40.3633 39.7777 36.9246 39.7777ZM25.1179 51.7482L17.4502 65.1669C16.5289 66.8063 17.0639 68.9011 18.6687 69.8726C19.2037 70.1762 19.7981 70.3279 20.3628 70.3279C21.5218 70.3279 22.6512 69.7208 23.2753 68.6278L25.9501 63.9829C32.7559 69.7511 41.4044 72.9995 50.3203 72.9995C59.1471 72.9995 67.4984 69.9636 74.2745 64.3472L76.7115 68.5975C77.3356 69.6904 78.465 70.2976 79.624 70.2976C80.1887 70.2976 80.7831 70.1458 81.3181 69.8422C82.9229 68.9011 83.4876 66.7759 82.5366 65.1365L74.8689 51.7178C73.9178 50.0784 71.8374 49.5016 70.2326 50.4731C68.6277 51.4142 68.063 53.5393 69.0141 55.1787L70.3515 57.5468C64.7939 62.4953 57.78 65.2276 50.3203 65.2276C42.6229 65.2276 35.4604 62.3739 29.8434 57.1521L30.9727 55.2091C31.9238 53.5697 31.3591 51.4749 29.7542 50.5034C28.1196 49.5319 26.069 50.1088 25.1179 51.7482Z" fill="white"/>
</svg>
