<svg width="32" height="32" viewBox="0 0 32 32" fill="none" xmlns="http://www.w3.org/2000/svg">
<path d="M31.8317 2.11364L17.2882 31.2045C17.0307 31.7348 16.5989 32 15.9929 32C15.9172 32 15.8036 31.9848 15.6521 31.9545C15.3188 31.8788 15.0499 31.7083 14.8454 31.4432C14.6408 31.178 14.5386 30.8788 14.5386 30.5455V17.4545H1.44947C1.11618 17.4545 0.816992 17.3523 0.551869 17.1477C0.286746 16.9432 0.116315 16.6743 0.0405755 16.3409C-0.0351641 16.0076 -0.00487281 15.6894 0.131472 15.3864C0.267817 15.0833 0.487492 14.8561 0.790473 14.7045L29.8774 0.159091C30.0743 0.0530227 30.294 0 30.5364 0C30.9454 0 31.2863 0.143932 31.559 0.431818C31.7862 0.643932 31.9264 0.905295 31.9794 1.21591C32.0324 1.52652 31.9832 1.82575 31.8317 2.11364Z" fill="#051829"/>
</svg>
