<svg width="100" height="100" viewBox="0 0 100 100" fill="none" xmlns="http://www.w3.org/2000/svg">
<path d="M100 86.1111C100 93.8889 93.8889 100 86.1111 100H13.8889C6.11111 100 0 93.8889 0 86.1111V13.8889C0 6.11111 6.11111 0 13.8889 0H86.1111C93.8889 0 100 6.11111 100 13.8889V86.1111Z" fill="#FF9800"/>
<path d="M56.0416 63.333C59.1666 62.708 62.0833 61.458 64.5833 59.7913C66.6666 58.5413 67.2916 55.833 66.0416 53.7497C64.7916 51.6663 62.0833 51.0413 59.9999 52.2913C53.9583 56.0413 46.0416 56.0413 39.9999 52.2913C37.9166 51.0413 35.2083 51.6663 33.9583 53.7497C32.7083 55.833 33.3333 58.5413 35.4166 59.7913C38.1249 61.458 41.0416 62.708 43.9583 63.333L35.6249 71.6663C33.9583 73.333 33.9583 76.0413 35.6249 77.9163C36.4583 78.7497 37.4999 79.1663 38.7499 79.1663C39.7916 79.1663 41.0416 78.7497 41.8749 77.9163L49.9999 69.7913L58.1249 77.9163C59.7916 79.583 62.4999 79.583 64.3749 77.9163C66.0416 76.2497 66.0416 73.5413 64.3749 71.6663L56.0416 63.333ZM49.9999 20.833C41.8749 20.833 35.4166 27.2913 35.4166 35.4163C35.4166 43.5413 41.8749 49.9997 49.9999 49.9997C58.1249 49.9997 64.5833 43.5413 64.5833 35.4163C64.5833 27.2913 58.1249 20.833 49.9999 20.833ZM49.9999 41.6663C46.4583 41.6663 43.7499 38.958 43.7499 35.4163C43.7499 31.8747 46.4583 29.1663 49.9999 29.1663C53.5416 29.1663 56.2499 31.8747 56.2499 35.4163C56.2499 38.958 53.5416 41.6663 49.9999 41.6663Z" fill="white"/>
</svg>
