<svg width="300" height="150" viewBox="0 0 300 150" fill="none" xmlns="http://www.w3.org/2000/svg">
<path fill-rule="evenodd" clip-rule="evenodd" d="M241.212 95H226.813L226.872 89.8327C222.85 94.6883 202.739 101.487 201.734 81.5774C200.728 61.6682 218.828 49.5285 234.414 50.014C246.883 50.4025 250 57.622 250 61.1831C247.989 57.7837 242.459 56.6741 237.431 56.3272C223.353 55.3561 207.767 84.491 220.336 84.9771C231.589 85.4123 235.42 69.1145 235.922 61.1831C248.391 61.1831 247.821 71.5424 245.978 76.7221L241.212 95ZM188.175 68.1137C188.175 64.4684 179.99 65.8351 175.657 68.1137C176.62 63.5566 178.546 59 189.62 59C198.479 59 200.693 64.7722 200.693 67.6582C200.693 73.4911 193.953 78.5949 190.583 79.962C185.963 81.8361 184.324 84.0633 184.324 86.3418C184.324 91.4456 194.435 88.6203 197.323 86.3418C196.842 94.0886 186.25 95 182.879 95C179.509 95 172.287 93.6329 171.806 85.8861C171.493 80.8571 176.615 77.2278 184.324 72.6709C188.386 70.2693 188.284 69.274 188.199 68.4497C188.187 68.3355 188.175 68.2246 188.175 68.1137ZM98.6075 79.8228C100.501 70.6672 102.595 60.5423 105.103 59H116.84C115.479 62.9452 112.86 71.3288 113.268 73.3014H122.453C123.304 68.5342 125.515 59 127.556 59H139.803C137.773 61.4526 136.172 70.3698 134.673 78.715C133.159 87.1497 131.749 95 130.108 95H117.35C118.031 90.3973 119.698 80.7973 120.922 79.2192H112.247C111.227 84.4795 108.573 95 106.124 95H94.3868C95.7386 93.6936 97.1104 87.0611 98.6075 79.8228ZM79.3914 56.8259C91.5481 56.8259 77.8718 100.707 50.5193 91.9308C52.039 96.3189 58.6239 98.7881 64.7022 99.7318C80.4046 102.17 95.2628 87.5427 97.6266 73.8908C99.6527 62.1892 99.6527 50 81.4177 50C63.1826 50 50.5193 65.1146 50.0128 76.3286C49.6075 85.2998 58.9614 87.8677 63.689 88.0302C63.2838 70.0878 71.7935 56.8259 79.3914 56.8259ZM151.382 82.3452C152.358 89.8157 162.61 89.3488 169.445 85.6136C169.406 85.7262 169.363 85.8741 169.312 86.0516C168.729 88.0814 167.037 93.9702 156.264 94.9517C152.357 95.3076 137.223 94.0179 137.224 80.0107C137.226 63.2021 152.195 59 159.681 59C164.563 59.0001 173.351 60.4006 173.351 67.8712C173.351 78.0664 159.356 81.7227 151.382 82.3452ZM161.633 71.1401C165.05 65.0699 158.215 62.2683 154.798 66.471C152.845 68.8725 150.209 74.1278 151.381 78.6101C154.505 77.8631 160.056 73.9411 161.633 71.1401Z" fill="#D1062B"/>
</svg>
