<svg width="27" height="22" viewBox="0 0 27 22" fill="none" xmlns="http://www.w3.org/2000/svg">
<path d="M25 12.4884V2.5237M25 2.5237C25 1.76923 24.7888 1.00131 23.7096 1.00131C22.6303 1.00131 8.987 1.00131 2.30026 1.00131C1.87012 0.978246 1.00984 1.25043 1.00984 2.5237M25 2.5237L15.3827 9.78968M1.00984 2.5237C1.00984 3.79697 1.00984 12.6499 1.00984 16.9172C0.977959 17.193 1.01538 17.6187 1.24447 17.9499M1.00984 2.5237L10.7693 9.78968M24.7654 18.4396C17.7658 18.4396 3.47337 18.4396 2.30026 18.4396C1.76468 18.4396 1.43694 18.2281 1.24447 17.9499M24.7654 18.4396C24.7654 18.4396 23.4427 20.0001 22.5951 21M24.7654 18.4396L22.5951 15.8792M15.3827 9.78968L13.6913 11.0676C13.3367 11.3355 12.8478 11.3372 12.4913 11.0718L10.7693 9.78968M15.3827 9.78968L19.721 13.7341M10.7693 9.78968L1.24447 17.9499" stroke="white" stroke-width="2" stroke-linecap="round"/>
</svg>
