<svg width="32" height="32" viewBox="0 0 32 32" fill="none" xmlns="http://www.w3.org/2000/svg">
<path d="M32 25.2727C32 25.6818 31.9243 26.2159 31.7727 26.875C31.6212 27.5341 31.4621 28.053 31.2955 28.4318C30.9773 29.1894 30.053 29.9924 28.5227 30.8409C27.0985 31.6136 25.6894 32 24.2955 32C23.8864 32 23.4886 31.9735 23.1023 31.9205C22.7159 31.8674 22.2803 31.7727 21.7955 31.6364C21.3106 31.5 20.9508 31.3902 20.7159 31.3068C20.4811 31.2235 20.0606 31.0682 19.4545 30.8409C18.8485 30.6136 18.4773 30.4773 18.3409 30.4318C16.8561 29.9015 15.5303 29.2727 14.3636 28.5455C12.4243 27.3485 10.4205 25.7159 8.35227 23.6477C6.28409 21.5795 4.65152 19.5758 3.45455 17.6364C2.72727 16.4697 2.09848 15.1439 1.56818 13.6591C1.52273 13.5227 1.38636 13.1515 1.15909 12.5455C0.931818 11.9394 0.776523 11.5189 0.693182 11.2841C0.609841 11.0493 0.5 10.6894 0.363636 10.2045C0.227273 9.7197 0.132568 9.28409 0.0795455 8.89773C0.0265227 8.51136 0 8.11364 0 7.70455C0 6.31061 0.386364 4.90152 1.15909 3.47727C2.00757 1.94698 2.81061 1.02273 3.56818 0.704545C3.94698 0.537886 4.46591 0.378795 5.125 0.227273C5.78409 0.07575 6.31818 0 6.72727 0C6.93939 0 7.09848 0.0227273 7.20455 0.0681818C7.47727 0.159091 7.8788 0.734841 8.40909 1.79545C8.57575 2.08334 8.80302 2.49243 9.09091 3.02273C9.3788 3.55302 9.64393 4.03409 9.88636 4.46591C10.1288 4.89773 10.3636 5.30302 10.5909 5.68182C10.6364 5.74243 10.7689 5.93182 10.9886 6.25C11.2083 6.56818 11.3712 6.83711 11.4773 7.05682C11.5833 7.27652 11.6364 7.49243 11.6364 7.70455C11.6364 8.00757 11.4205 8.38636 10.9886 8.84091C10.5568 9.29545 10.0871 9.71211 9.57955 10.0909C9.07198 10.4697 8.60227 10.8712 8.17045 11.2955C7.73864 11.7197 7.52273 12.0682 7.52273 12.3409C7.52273 12.4773 7.56061 12.6477 7.63636 12.8523C7.71211 13.0568 7.77652 13.2121 7.82955 13.3182C7.88257 13.4243 7.98864 13.6061 8.14773 13.8636C8.30682 14.1212 8.39393 14.2652 8.40909 14.2955C9.56061 16.3712 10.8788 18.1515 12.3636 19.6364C13.8485 21.1212 15.6288 22.4394 17.7045 23.5909C17.7348 23.6061 17.8788 23.6932 18.1364 23.8523C18.3939 24.0114 18.5758 24.1174 18.6818 24.1705C18.7879 24.2235 18.9432 24.2879 19.1477 24.3636C19.3523 24.4394 19.5227 24.4773 19.6591 24.4773C19.9318 24.4773 20.2803 24.2614 20.7045 23.8295C21.1288 23.3977 21.5303 22.928 21.9091 22.4205C22.2879 21.9129 22.7045 21.4432 23.1591 21.0114C23.6136 20.5795 23.9924 20.3636 24.2955 20.3636C24.5076 20.3636 24.7235 20.4167 24.9432 20.5227C25.1629 20.6288 25.4318 20.7917 25.75 21.0114C26.0682 21.2311 26.2576 21.3636 26.3182 21.4091C26.697 21.6364 27.1023 21.8712 27.5341 22.1136C27.9659 22.3561 28.447 22.6212 28.9773 22.9091C29.5076 23.197 29.9167 23.4243 30.2045 23.5909C31.2652 24.1212 31.8409 24.5227 31.9318 24.7955C31.9773 24.9015 32 25.0606 32 25.2727Z" fill="white"/>
</svg>
