<svg width="34" height="29" viewBox="0 0 34 29" fill="none" xmlns="http://www.w3.org/2000/svg">
<path fill-rule="evenodd" clip-rule="evenodd" d="M15.4158 2H17.6156V5.85727L15.4158 5.85727V2ZM13.4158 2C13.4158 0.89543 14.3113 0 15.4158 0H17.6156C18.7202 0 19.6156 0.895431 19.6156 2V5.85727C19.6156 6.96184 18.7202 7.85727 17.6156 7.85727H15.4158C14.3113 7.85727 13.4158 6.96184 13.4158 5.85727V2ZM2.48229 6.05771C2.18465 6.40011 2.01611 6.96262 2.01611 7.85706V24.5538C2.01611 24.8777 2.12517 25.3916 2.42782 25.7978C2.694 26.1551 3.15729 26.5002 4.06519 26.5002H4.08328H4.10178H4.12072H4.14008H4.15986H4.18007H4.20069H4.22174H4.24319H4.26507H4.28735H4.31005H4.33315H4.35666H4.38057H4.40489H4.42961H4.45473H4.48025H4.50616H4.53246H4.55916H4.58625H4.61373H4.64159H4.66984H4.69847H4.72749H4.75688H4.78665H4.8168H4.84732H4.87821H4.90947H4.9411H4.9731H5.00546H5.03819H5.07128H5.10472H5.13853H5.17269H5.2072H5.24207H5.27729H5.31285H5.34877H5.38502H5.42162H5.45857H5.49585H5.53347H5.57142H5.60971H5.64833H5.68728H5.72656H5.76617H5.8061H5.84636H5.88693H5.92783H5.96904H6.01057H6.05242H6.09457H6.13704H6.17981H6.22289H6.26628H6.30997H6.35396H6.39825H6.44284H6.48772H6.5329H6.57837H6.62413H6.67018H6.71652H6.76314H6.81004H6.85723H6.90469H6.95243H7.00045H7.04874H7.09731H7.14614H7.19525H7.24462H7.29425H7.34415H7.39431H7.44473H7.49541H7.54634H7.59753H7.64897H7.70066H7.7526H7.80479H7.85722H7.90989H7.9628H8.01596H8.06935H8.12298H8.17684H8.23094H8.28526H8.33981H8.39459H8.4496H8.50483H8.56028H8.61595H8.67183H8.72794H8.78425H8.84078H8.89752H8.95447H9.01163H9.06899H9.12655H9.18432H9.24228H9.30044H9.3588H9.41735H9.4761H9.53503H9.59416H9.65347H9.71296H9.77264H9.8325H9.89254H9.95276H10.0131H10.0737H10.1345H10.1954H10.2564H10.3177H10.3791H10.4407H10.5024H10.5643H10.6264H10.6886H10.7509H10.8134H10.8761H10.9389H11.0019H11.065H11.1282H11.1916H11.2552H11.3188H11.3826H11.4466H11.5106H11.5748H11.6392H11.7036H11.7682H11.8329H11.8977H11.9627H12.0277H12.0929H12.1582H12.2236H12.2891H12.3548H12.4205H12.4863H12.5523H12.6183H12.6845H12.7507H12.817H12.8835H12.95H13.0166H13.0833H13.1501H13.2169H13.2839H13.3509H13.4181H13.4852H13.5525H13.6199H13.6873H13.7548H13.8223H13.8899H13.9576H14.0254H14.0932H14.1611H14.229H14.297H14.365H14.4331H14.5013H14.5695H14.6377H14.706H14.7743H14.8427H14.9111H14.9795H15.048H15.1165H15.1851H15.2536H15.3223H15.3909H15.4595H15.5282H15.5969H15.6657H15.7344H15.8032H15.8719H15.9407H16.0095H16.0783H16.1471H16.2159H16.2848H16.3536H16.4224H16.4912H16.56H16.6288H16.6976H16.7664H16.8352H16.904H16.9727H17.0415H17.1102H17.1789H17.2475H17.3162H17.3848H17.4534H17.522H17.5905H17.659H17.7275H17.7959H17.8643H17.9327H18.001H18.0692H18.1375H18.2056H18.2737H18.3418H18.4098H18.4778H18.5457H18.6136H18.6813H18.7491H18.8167H18.8843H18.9519H19.0193H19.0867H19.154H19.2213H19.2884H19.3555H19.4225H19.4894H19.5563H19.623H19.6897H19.7563H19.8228H19.8891H19.9554H20.0216H20.0877H20.1537H20.2196H20.2854H20.3511H20.4167H20.4822H20.5475H20.6128H20.6779H20.7429H20.8078H20.8726H20.9373H21.0018H21.0662H21.1305H21.1946H21.2586H21.3225H21.3863H21.4499H21.5134H21.5767H21.6399H21.7029H21.7658H21.8286H21.8912H21.9537H22.016H22.0781H22.1401H22.2019H22.2636H22.3251H22.3864H22.4476H22.5086H22.5695H22.6302H22.6907H22.751H22.8111H22.8711H22.9309H22.9905H23.0499H23.1091H23.1682H23.227H23.2857H23.3442H23.4025H23.4606H23.5184H23.5761H23.6336H23.6909H23.748H23.8048H23.8615H23.9179H23.9742H24.0302H24.086H24.1416H24.1969H24.2521H24.307H24.3617H24.4161H24.4704H24.5244H24.5781H24.6317H24.685H24.738H24.7908H24.8434H24.8957H24.9478H24.9997H25.0513H25.1026H25.1537H25.2045H25.2551H25.3054H25.3555H25.4053H25.4548H25.504H25.553H25.6018H25.6502H25.6984H25.7463H25.794H25.8413H25.8884H25.9352H25.9817H26.0279H26.0738H26.1195H26.1648H26.2099H26.2547H26.2991H26.3433H26.3872H26.4307H26.474H26.517H26.5596H26.6019H26.644H26.6857H26.7271H26.7682H26.809H26.8494H26.8895H26.9293H26.9688H27.008H27.0468H27.0853H27.1234H27.1612H27.1987H27.2359H27.2727H27.3091H27.3453H27.381H27.4165H27.4515H27.4863H27.5206H27.5547H27.5883H27.6216H27.6546H27.6871H27.7194H27.7512H27.7827H27.8138H27.8446H27.8749H27.9049H27.9345H27.9638H27.9926H28.0211H28.0492H28.0769H28.1043H28.1312H28.1577H28.1839H28.2096H28.235H28.2599H28.2845H28.3087H28.3324H28.3558H28.3787H28.4012H28.4234H28.4451H28.4664H28.4872H28.5077H28.5277H28.5473H28.5665H28.5853H28.6036H28.6215H28.639H28.6561H28.6727H28.6888H28.7046H28.7199H28.7347H28.7491H28.7631H28.7766H28.7897H28.8023H28.8145H28.8262H28.8374H28.8482H28.8585H28.8684H28.8778H28.8868H28.8952H28.9032H28.9108H28.9178H28.9244H28.9305H28.9362H28.9413H28.946H28.9502H28.9539H28.9571H28.9598H28.962H28.9638H28.965H28.9658C28.9659 26.5002 28.966 26.5002 28.966 27.5002C28.966 28.5002 28.9659 28.5002 28.9658 28.5002H28.965H28.9638H28.962H28.9598H28.9571H28.9539H28.9502H28.946H28.9413H28.9362H28.9305H28.9244H28.9178H28.9108H28.9032H28.8952H28.8868H28.8778H28.8684H28.8585H28.8482H28.8374H28.8262H28.8145H28.8023H28.7897H28.7766H28.7631H28.7491H28.7347H28.7199H28.7046H28.6888H28.6727H28.6561H28.639H28.6215H28.6036H28.5853H28.5665H28.5473H28.5277H28.5077H28.4872H28.4664H28.4451H28.4234H28.4012H28.3787H28.3558H28.3324H28.3087H28.2845H28.2599H28.235H28.2096H28.1839H28.1577H28.1312H28.1043H28.0769H28.0492H28.0211H27.9926H27.9638H27.9345H27.9049H27.8749H27.8446H27.8138H27.7827H27.7512H27.7194H27.6871H27.6546H27.6216H27.5883H27.5547H27.5206H27.4863H27.4515H27.4165H27.381H27.3453H27.3091H27.2727H27.2359H27.1987H27.1612H27.1234H27.0853H27.0468H27.008H26.9688H26.9293H26.8895H26.8494H26.809H26.7682H26.7271H26.6857H26.644H26.6019H26.5596H26.517H26.474H26.4307H26.3872H26.3433H26.2991H26.2547H26.2099H26.1648H26.1195H26.0738H26.0279H25.9817H25.9352H25.8884H25.8413H25.794H25.7463H25.6984H25.6502H25.6018H25.553H25.504H25.4548H25.4053H25.3555H25.3054H25.2551H25.2045H25.1537H25.1026H25.0513H24.9997H24.9478H24.8957H24.8434H24.7908H24.738H24.685H24.6317H24.5781H24.5244H24.4704H24.4161H24.3617H24.307H24.2521H24.1969H24.1416H24.086H24.0302H23.9742H23.9179H23.8615H23.8048H23.748H23.6909H23.6336H23.5761H23.5184H23.4606H23.4025H23.3442H23.2857H23.227H23.1682H23.1091H23.0499H22.9905H22.9309H22.8711H22.8111H22.751H22.6907H22.6302H22.5695H22.5086H22.4476H22.3864H22.3251H22.2636H22.2019H22.1401H22.0781H22.016H21.9537H21.8912H21.8286H21.7658H21.7029H21.6399H21.5767H21.5134H21.4499H21.3863H21.3225H21.2586H21.1946H21.1305H21.0662H21.0018H20.9373H20.8726H20.8078H20.7429H20.6779H20.6128H20.5475H20.4822H20.4167H20.3511H20.2854H20.2196H20.1537H20.0877H20.0216H19.9554H19.8891H19.8228H19.7563H19.6897H19.623H19.5563H19.4894H19.4225H19.3555H19.2884H19.2213H19.154H19.0867H19.0193H18.9519H18.8843H18.8167H18.7491H18.6813H18.6136H18.5457H18.4778H18.4098H18.3418H18.2737H18.2056H18.1375H18.0692H18.001H17.9327H17.8643H17.7959H17.7275H17.659H17.5905H17.522H17.4534H17.3848H17.3162H17.2475H17.1789H17.1102H17.0415H16.9727H16.904H16.8352H16.7664H16.6976H16.6288H16.56H16.4912H16.4224H16.3536H16.2848H16.2159H16.1471H16.0783H16.0095H15.9407H15.8719H15.8032H15.7344H15.6657H15.5969H15.5282H15.4595H15.3909H15.3223H15.2536H15.1851H15.1165H15.048H14.9795H14.9111H14.8427H14.7743H14.706H14.6377H14.5695H14.5013H14.4331H14.365H14.297H14.229H14.1611H14.0932H14.0254H13.9576H13.8899H13.8223H13.7548H13.6873H13.6199H13.5525H13.4852H13.4181H13.3509H13.2839H13.2169H13.1501H13.0833H13.0166H12.95H12.8835H12.817H12.7507H12.6845H12.6183H12.5523H12.4863H12.4205H12.3548H12.2891H12.2236H12.1582H12.0929H12.0277H11.9627H11.8977H11.8329H11.7682H11.7036H11.6392H11.5748H11.5106H11.4466H11.3826H11.3188H11.2552H11.1916H11.1282H11.065H11.0019H10.9389H10.8761H10.8134H10.7509H10.6886H10.6264H10.5643H10.5024H10.4407H10.3791H10.3177H10.2564H10.1954H10.1345H10.0737H10.0131H9.95276H9.89254H9.8325H9.77264H9.71296H9.65347H9.59416H9.53503H9.4761H9.41735H9.3588H9.30044H9.24228H9.18432H9.12655H9.06899H9.01163H8.95447H8.89752H8.84078H8.78425H8.72794H8.67183H8.61595H8.56028H8.50483H8.4496H8.39459H8.33981H8.28526H8.23094H8.17684H8.12298H8.06935H8.01596H7.9628H7.90989H7.85722H7.80479H7.7526H7.70066H7.64897H7.59753H7.54634H7.49541H7.44473H7.39431H7.34415H7.29425H7.24462H7.19525H7.14614H7.09731H7.04874H7.00045H6.95243H6.90469H6.85723H6.81004H6.76314H6.71652H6.67018H6.62413H6.57837H6.5329H6.48772H6.44284H6.39825H6.35396H6.30997H6.26628H6.22289H6.17981H6.13704H6.09457H6.05242H6.01057H5.96904H5.92783H5.88693H5.84636H5.8061H5.76617H5.72656H5.68728H5.64833H5.60971H5.57142H5.53347H5.49585H5.45857H5.42162H5.38502H5.34877H5.31285H5.27729H5.24207H5.2072H5.17269H5.13853H5.10472H5.07128H5.03819H5.00546H4.9731H4.9411H4.90947H4.87821H4.84732H4.8168H4.78665H4.75688H4.72749H4.69847H4.66984H4.64159H4.61373H4.58625H4.55916H4.53246H4.50616H4.48025H4.45473H4.42961H4.40489H4.38057H4.35666H4.33315H4.31005H4.28735H4.26507H4.24319H4.22174H4.20069H4.18007H4.15986H4.14008H4.12072H4.10178H4.08328H4.06519C2.53384 28.5002 1.47258 27.8632 0.824037 26.9928C0.211963 26.1713 0.0161133 25.2119 0.0161133 24.5538V7.85706C0.0161133 6.78718 0.2033 5.63091 0.972843 4.74562C1.76697 3.83204 2.98952 3.4195 4.57337 3.4195H11.6879V5.4195H4.57337C3.31142 5.4195 2.75534 5.74358 2.48229 6.05771ZM28.966 27.5002V26.5002C30.0634 26.5002 30.4842 26.208 30.6713 25.9808C30.8915 25.7133 31.0151 25.2683 31.0151 24.5538V7.85706C31.0151 6.79561 30.2141 5.4195 28.4578 5.4195H21.3433V3.4195H28.4578C31.5801 3.4195 33.0151 5.97203 33.0151 7.85706V24.5538C33.0151 25.4107 32.8846 26.4389 32.2155 27.2518C31.5133 28.1049 30.4096 28.5002 28.966 28.5002V27.5002ZM17.582 19.51C17.9554 19.4155 18.3079 19.2725 18.6318 19.0887L18.6314 19.0885C19.8396 18.4028 20.6487 17.1478 20.6487 15.713C20.6487 13.5433 18.7982 11.7844 16.5155 11.7844C14.2328 11.7844 12.3823 13.5433 12.3823 15.713C12.3823 17.1478 13.1915 18.4029 14.3997 19.0886L14.3991 19.0888C14.7229 19.2726 15.0754 19.4155 15.4487 19.51V20.5442H14.4487C12.8938 20.5442 12.0296 21.1406 11.5259 21.8054C10.9861 22.5181 10.7988 23.398 10.7988 23.9639V24.9639H8.79883V23.9639C8.79883 23.0567 9.07658 21.7267 9.93167 20.5978C10.3461 20.0506 10.8837 19.5683 11.558 19.2088C10.8229 18.2401 10.3823 17.0393 10.3823 15.713C10.3823 12.3443 13.2251 9.7844 16.5155 9.7844C19.8059 9.7844 22.6487 12.3443 22.6487 15.713C22.6487 17.0393 22.2081 18.2403 21.4729 19.2089C22.1471 19.5684 22.6846 20.0507 23.099 20.5978C23.9541 21.7267 24.2319 23.0567 24.2319 23.9639V24.9639H22.2319V23.9639C22.2319 23.398 22.0446 22.5181 21.5048 21.8054C21.0011 21.1406 20.1369 20.5442 18.582 20.5442H17.582V19.51Z" fill="#FF9900"/>
</svg>
