<svg width="300" height="150" viewBox="0 0 300 150" fill="none" xmlns="http://www.w3.org/2000/svg">
<path fill-rule="evenodd" clip-rule="evenodd" d="M102 75.0001C102 48.4904 123.49 27 150 27C176.51 27 198 48.4904 198 75.0001C198 101.51 176.51 123 150 123C123.49 123 102 101.51 102 75.0001ZM150 25C122.386 25 100 47.3858 100 75.0001C100 102.614 122.386 125 150 125C177.614 125 200 102.614 200 75.0001C200 47.3858 177.614 25 150 25ZM107.475 59.3899C107.475 58.2853 108.37 57.3899 109.475 57.3899H139.62C140.15 57.3899 140.659 57.6006 141.034 57.9757L150.415 67.357L159.797 57.9757C160.172 57.6006 160.68 57.3899 161.211 57.3899H191.356C192.461 57.3899 193.356 58.2853 193.356 59.3899V91.856C193.356 92.9606 192.461 93.856 191.356 93.856H162.872L151.829 104.898C151.048 105.679 149.782 105.679 149.001 104.898L137.959 93.856H109.475C108.37 93.856 107.475 92.9606 107.475 91.856V59.3899ZM139.62 59.3899H109.475V91.856H137.959C138.489 91.856 138.998 92.0667 139.373 92.4418L150.415 103.484L161.458 92.4418C161.833 92.0667 162.341 91.856 162.872 91.856H191.356V59.3899H161.211L151.829 68.7712C151.048 69.5523 149.782 69.5523 149.001 68.7712L139.62 59.3899ZM111.381 88.5337V62.2964C111.381 61.7441 111.829 61.2964 112.381 61.2964H138.374C138.639 61.2964 138.893 61.4018 139.081 61.5893L149.708 72.2164C150.098 72.607 150.732 72.607 151.122 72.2164L161.749 61.5893C161.937 61.4018 162.191 61.2964 162.456 61.2964H188.449C189.001 61.2964 189.449 61.7441 189.449 62.2964V88.5337C189.449 89.086 189.001 89.5337 188.449 89.5337H163.873C163.32 89.5337 162.873 89.086 162.873 88.5337V87.7954C162.873 86.9045 161.796 86.4583 161.166 87.0883L151.122 97.1317C150.732 97.5223 150.098 97.5223 149.708 97.1317L139.664 87.0883C139.035 86.4583 137.957 86.9045 137.957 87.7954V88.5337C137.957 89.086 137.51 89.5337 136.957 89.5337H112.381C111.829 89.5337 111.381 89.086 111.381 88.5337Z" fill="#B41A14"/>
</svg>
