<svg width="100" height="100" viewBox="0 0 100 100" fill="none" xmlns="http://www.w3.org/2000/svg">
<path d="M87.5 0H12.5C5.59644 0 0 5.59644 0 12.5V87.5C0 94.4036 5.59644 100 12.5 100H87.5C94.4036 100 100 94.4036 100 87.5V12.5C100 5.59644 94.4036 0 87.5 0Z" fill="#64A9DC"/>
<path d="M78.544 22.3703L20.0811 45.1819C16.0909 46.8015 16.1146 49.053 19.3538 50.0569L33.9346 54.6608L39.5136 71.9646C40.1918 73.8585 39.8575 74.6096 41.8234 74.6096C43.3405 74.6096 44.0136 73.9099 44.8585 73.0748C45.3959 72.5429 48.5862 69.405 52.1485 65.9012L67.3153 77.2375C70.1062 78.7951 72.1214 77.9882 72.8163 74.6153L82.7722 27.1537C83.7915 23.0195 81.2142 21.1443 78.544 22.3703ZM36.2229 53.6031L69.0882 32.6269C70.7289 31.6203 72.2332 32.1615 70.9981 33.2706L42.8568 58.9566L41.7611 70.7794L36.2229 53.6031Z" fill="white"/>
</svg>
