<svg width="20" height="12" viewBox="0 0 20 12" fill="none" xmlns="http://www.w3.org/2000/svg">
<path d="M20 10.2887C20 10.4674 19.9332 10.6254 19.7996 10.7629L18.7976 11.7938C18.664 11.9313 18.5104 12 18.3367 12C18.163 12 18.0094 11.9313 17.8758 11.7938L10 3.69072L2.12425 11.7938C1.99064 11.9313 1.83701 12 1.66333 12C1.48964 12 1.33601 11.9313 1.2024 11.7938L0.200401 10.7629C0.0667936 10.6254 0 10.4674 0 10.2887C0 10.11 0.0667936 9.9519 0.200401 9.81443L9.53908 0.206186C9.67269 0.0687217 9.82631 0 10 0C10.1737 0 10.3273 0.0687217 10.4609 0.206186L19.7996 9.81443C19.9332 9.9519 20 10.11 20 10.2887Z" fill="white"/>
</svg>
