<svg width="40" height="41" viewBox="0 0 40 41" fill="none" xmlns="http://www.w3.org/2000/svg">
<path d="M25.1926 28.106C25.0389 26.5182 25.0979 25.4101 25.0979 23.9592C25.8663 23.5819 27.2432 21.1765 27.4758 19.1445C28.08 19.0982 29.0326 18.5466 29.3116 16.3687C29.4621 15.1995 28.8642 14.5415 28.5 14.3347C29.4832 11.5678 31.5253 3.00815 24.7232 2.12361C24.0232 0.973128 22.2305 0.390991 19.9011 0.390991C10.5811 0.551547 9.45684 6.97672 11.5 14.3347C11.1368 14.5415 10.5389 15.1995 10.6884 16.3687C10.9684 18.5466 11.92 19.0982 12.5242 19.1445C12.7558 21.1755 14.1874 23.5819 14.9579 23.9592C14.9579 25.4101 15.0158 26.5182 14.8621 28.106C13.0179 32.7454 0.574737 31.4432 0 40.391H40C39.4263 31.4432 27.0368 32.7454 25.1926 28.106Z" fill="#FF9900"/>
</svg>
