<svg width="100" height="100" viewBox="0 0 100 100" fill="none" xmlns="http://www.w3.org/2000/svg">
<path d="M100 86.1111C100 93.8889 93.8889 100 86.1111 100H13.8889C6.11111 100 0 93.8889 0 86.1111V13.8889C0 6.11111 6.11111 0 13.8889 0H86.1111C93.8889 0 100 6.11111 100 13.8889V86.1111Z" fill="#7360F2"/>
<path d="M63.7368 44C63.4718 38.9226 60.7583 36.256 55.5964 36" stroke="white" stroke-width="3" stroke-linecap="round" stroke-linejoin="round"/>
<path d="M71.8713 47C71.986 41.7671 70.4163 37.3949 67.1622 33.8837C63.8932 30.3599 59.3682 28.4197 53.5614 28" stroke="white" stroke-width="3" stroke-linecap="round" stroke-linejoin="round"/>
<path d="M79 50C78.93 41.0345 76.1818 33.9735 70.7552 28.817C65.3286 23.6605 58.5798 21.0548 50.5088 21" stroke="white" stroke-width="3" stroke-linecap="round" stroke-linejoin="round"/>
<path d="M55.2726 63.6609C55.2726 63.6609 57.2869 63.828 58.3714 62.515L60.4859 59.9009C61.5058 58.6047 63.9672 57.7779 66.3775 59.0975C68.1838 60.1097 69.9374 61.2102 71.6317 62.3948C73.2312 63.5507 76.5067 66.2366 76.5169 66.2366C78.0774 67.5312 78.4377 69.4321 77.3754 71.4365C77.3754 71.4482 77.3669 71.4682 77.3669 71.4783C76.1968 73.4715 74.7112 75.2691 72.966 76.8034C72.9456 76.8134 72.9456 76.8234 72.9269 76.8335C71.4107 78.0784 69.9211 78.7861 68.4581 78.9565C68.2427 78.9936 68.0238 79.007 67.8054 78.9966C67.1602 79.0027 66.5184 78.9057 65.905 78.7093L65.8574 78.6408C63.6034 78.0161 59.84 76.4526 53.5728 73.0551C49.946 71.1121 46.4933 68.8708 43.2515 66.3552C41.6266 65.095 40.0767 63.7443 38.6093 62.3096L38.4529 62.1559L38.2965 62.0022L38.1401 61.8486C38.0874 61.7984 38.0364 61.7467 37.9837 61.6949C36.5238 60.2529 35.1492 58.7298 33.8668 57.1331C31.3072 53.9478 29.0264 50.5554 27.0488 46.9923C23.5914 40.832 22.0003 37.1371 21.3646 34.9188L21.2949 34.8721C21.0956 34.2692 20.9975 33.6385 21.0042 33.0046C20.9923 32.79 21.0055 32.5748 21.0433 32.3632C21.2258 30.9278 21.9471 29.4628 23.2072 27.9684C23.2174 27.9501 23.2276 27.9501 23.2378 27.93C24.7988 26.2151 26.6281 24.7557 28.6568 23.6071C28.667 23.6071 28.6874 23.5971 28.6993 23.5971C30.7391 22.5531 32.6735 22.9072 33.9892 24.4322C33.9994 24.4423 36.7276 27.6611 37.8988 29.2329C39.1043 30.8995 40.2242 32.6244 41.2542 34.401C42.5971 36.7679 41.7556 39.1916 40.4366 40.1905L37.7764 42.2685C36.4335 43.3342 36.6103 45.3136 36.6103 45.3136C36.6103 45.3136 40.5505 59.9677 55.2726 63.6609Z" fill="white"/>
</svg>
